# xmcd CD database file
#
# Track frame offsets:
#	150
#	20807
#	41357
#	57639
#	85774
#	103506
#	120914
#	134585
#	160019
#	180233
#	200981
#	217401
#	233206
#	258291
#	275596
#	293969
#	307766
#
# Disc length: 4414 seconds
#
# Revision: 0
# Processed by: cddbd v1.5.1PL0 Copyright (c) Steve Scherf et al.
# Submitted via: CDex 1.51
#
DISCID=f8113c11
DTITLE=Arnel dC Aquino, SJ - Lauds 4 - To A Lonely Place To Pray
DYEAR=2001
DGENRE=New Age
TTITLE0=How Lovely Is Your Dwelling Place
TTITLE1=All These In Her Heart
TTITLE2=Purihin Ang Panginoon
TTITLE3=Maging Aking Muli
TTITLE4=Coming Home
TTITLE5=Hangad
TTITLE6=Bayan, Umawit
TTITLE7=Gandang Sinauna at Sariwa
TTITLE8=To A Lonely Place To Pray
TTITLE9=Something More
TTITLE10=Let The Children Come To Me
TTITLE11=Panginoon, Maawa Ka - Kordero Ng Diyos
TTITLE12=Inay
TTITLE13=Puso Mong Mahal
TTITLE14=Are You The One Who Is To Come
TTITLE15=One Thing I Ask
TTITLE16=Hwag Kang Mangamba
EXTD=YEAR: 2001
EXTT0=
EXTT1=
EXTT2=
EXTT3=
EXTT4=
EXTT5=
EXTT6=
EXTT7=
EXTT8=
EXTT9=
EXTT10=
EXTT11=
EXTT12=
EXTT13=
EXTT14=
EXTT15=
EXTT16=
PLAYORDER=
